<svg xmlns="http://www.w3.org/2000/svg" version="1.1" xmlns:xlink="http://www.w3.org/1999/xlink" xmlns:svgjs="http://svgjs.dev/svgjs" width="1440" height="560" preserveAspectRatio="none" viewBox="0 0 1440 560"><g mask="url(&quot;#SvgjsMask1016&quot;)" fill="none"><rect width="1440" height="560" x="0" y="0" fill="url(&quot;#SvgjsLinearGradient1017&quot;)"></rect><path d="M513.243,179.548C529.913,178.688,542.266,166.172,550.889,151.88C559.9,136.945,567.428,118.998,558.988,103.733C550.361,88.13,531.029,82.559,513.243,83.789C497.512,84.877,485.618,95.997,477.286,109.385C468.294,123.832,460.451,140.999,468.212,156.143C476.481,172.279,495.136,180.482,513.243,179.548" fill="rgba(255, 109, 109, 0.4)" class="triangle-float2"></path><path d="M56.291,310.276C79.439,310.896,103.427,302.73,114.909,282.621C126.315,262.645,120.971,237.975,108.671,218.537C97.275,200.527,77.603,190.141,56.291,189.986C34.687,189.829,13.635,199.206,2.574,217.765C-8.74,236.748,-8.225,260.509,2.872,279.62C13.921,298.649,34.295,309.687,56.291,310.276" fill="rgba(255, 109, 109, 0.4)" class="triangle-float3"></path><path d="M-81.91 34.19 a119.94 119.94 0 1 0 239.88 0 a119.94 119.94 0 1 0 -239.88 0z" fill="rgba(255, 109, 109, 0.4)" class="triangle-float2"></path><path d="M1243.06 24.02 a102.84 102.84 0 1 0 205.68 0 a102.84 102.84 0 1 0 -205.68 0z" fill="rgba(255, 109, 109, 0.4)" class="triangle-float1"></path><path d="M192.94 432.5 a142.93 142.93 0 1 0 285.86 0 a142.93 142.93 0 1 0 -285.86 0z" fill="rgba(255, 109, 109, 0.4)" class="triangle-float1"></path><path d="M719.213,451.411C755.967,450.907,794.399,441.882,813.641,410.564C833.655,377.991,830.036,336.191,810.021,303.619C790.919,272.534,755.675,255.604,719.213,256.897C684.904,258.114,657.29,280.686,638.918,309.688C618.803,341.441,601.66,380.514,620.189,413.218C638.88,446.209,681.299,451.931,719.213,451.411" fill="rgba(255, 109, 109, 0.4)" class="triangle-float3"></path><path d="M677.78 72.45 a154.17 154.17 0 1 0 308.34 0 a154.17 154.17 0 1 0 -308.34 0z" fill="rgba(255, 109, 109, 0.4)" class="triangle-float1"></path><path d="M788.211,369.995C805.893,369.552,822.326,361.604,831.92,346.744C842.463,330.415,848.246,309.284,838.119,292.694C828.271,276.561,807.111,274.964,788.211,275.139C769.728,275.31,749.9,278.072,739.88,293.604C729.145,310.245,729.953,332.296,740.541,349.031C750.488,364.753,769.612,370.46,788.211,369.995" fill="rgba(255, 109, 109, 0.4)" class="triangle-float1"></path><path d="M70.49 4.32 a147.12 147.12 0 1 0 294.24 0 a147.12 147.12 0 1 0 -294.24 0z" fill="rgba(255, 109, 109, 0.4)" class="triangle-float1"></path><path d="M1415.451,326.201C1458.997,326.29,1494.53,296.152,1517.067,258.891C1540.588,220.004,1552.358,173.521,1532.533,132.626C1510.135,86.423,1466.784,48.113,1415.451,49.278C1365.525,50.411,1328.917,92.757,1307.223,137.738C1288.45,176.662,1293.034,221,1314.555,258.475C1336.175,296.123,1372.037,326.112,1415.451,326.201" fill="rgba(255, 109, 109, 0.4)" class="triangle-float3"></path><path d="M422.19 159.27 a153.03 153.03 0 1 0 306.06 0 a153.03 153.03 0 1 0 -306.06 0z" fill="rgba(255, 109, 109, 0.4)" class="triangle-float1"></path><path d="M49.504,407.848C95.71,407.086,131.326,369.777,151.378,328.142C168.828,291.909,160.936,251.404,141.911,215.973C121.521,178,92.537,140.827,49.504,138.415C3.032,135.81,-40.082,163.863,-62.773,204.502C-84.923,244.172,-80.321,291.825,-58.36,331.6C-35.549,372.913,2.318,408.626,49.504,407.848" fill="rgba(255, 109, 109, 0.4)" class="triangle-float2"></path><path d="M306.16,508.637C327.72,509.145,350.106,502.667,361.398,484.294C373.154,465.167,371.841,440.379,359.73,421.475C348.464,403.889,327.043,398.33,306.16,398.073C284.692,397.809,261.414,401.784,250.26,420.129C238.777,439.014,243.456,463.105,255.258,481.792C266.237,499.175,285.606,508.152,306.16,508.637" fill="rgba(255, 109, 109, 0.4)" class="triangle-float3"></path><path d="M1065.801,629.624C1113.361,629.226,1137.746,577.724,1160.289,535.844C1181.169,497.055,1200.401,454.266,1181.649,414.405C1160.288,369,1115.938,332.949,1065.801,334.993C1018.043,336.94,985.932,380.144,965.233,423.228C947.555,460.025,950.655,500.749,968.536,537.447C989.506,580.485,1017.928,630.024,1065.801,629.624" fill="rgba(255, 109, 109, 0.4)" class="triangle-float2"></path><path d="M821.84 348.81 a108.72 108.72 0 1 0 217.44 0 a108.72 108.72 0 1 0 -217.44 0z" fill="rgba(255, 109, 109, 0.4)" class="triangle-float1"></path><path d="M618.22 278.1 a112.15 112.15 0 1 0 224.3 0 a112.15 112.15 0 1 0 -224.3 0z" fill="rgba(255, 109, 109, 0.4)" class="triangle-float1"></path></g><defs><mask id="SvgjsMask1016"><rect width="1440" height="560" fill="#ffffff"></rect></mask><linearGradient x1="50%" y1="0%" x2="50%" y2="100%" gradientUnits="userSpaceOnUse" id="SvgjsLinearGradient1017"><stop stop-color="rgba(255, 218, 161, 1)" offset="0"></stop><stop stop-color="rgba(255, 241, 156, 1)" offset="1"></stop></linearGradient><style>
                @keyframes float1 {
                    0%{transform: translate(0, 0)}
                    50%{transform: translate(-10px, 0)}
                    100%{transform: translate(0, 0)}
                }

                .triangle-float1 {
                    animation: float1 5s infinite;
                }

                @keyframes float2 {
                    0%{transform: translate(0, 0)}
                    50%{transform: translate(-5px, -5px)}
                    100%{transform: translate(0, 0)}
                }

                .triangle-float2 {
                    animation: float2 4s infinite;
                }

                @keyframes float3 {
                    0%{transform: translate(0, 0)}
                    50%{transform: translate(0, -10px)}
                    100%{transform: translate(0, 0)}
                }

                .triangle-float3 {
                    animation: float3 6s infinite;
                }
            </style></defs></svg>