<?xml version="1.0" standalone="no"?>
<!DOCTYPE svg PUBLIC "-//W3C//DTD SVG 20010904//EN"
 "http://www.w3.org/TR/2001/REC-SVG-20010904/DTD/svg10.dtd">
<svg version="1.0" xmlns="http://www.w3.org/2000/svg"
 width="494.000000pt" height="737.000000pt" viewBox="0 0 494.000000 737.000000"
 preserveAspectRatio="xMidYMid meet">

<g transform="translate(0.000000,737.000000) scale(0.100000,-0.100000)"
fill="#000000" stroke="none">
<path d="M1175 6163 c-93 -133 -220 -246 -377 -336 -58 -34 -74 -59 -55 -87
19 -28 60 -58 101 -75 39 -16 47 -39 19 -49 -10 -4 -61 -10 -115 -13 -92 -6
-100 -5 -152 22 -31 16 -63 36 -72 47 -17 18 -44 25 -44 11 1 -31 53 -93 108
-128 48 -31 67 -50 83 -85 33 -72 34 -74 69 -97 66 -46 196 -23 320 55 62 40
361 336 385 381 22 44 19 57 -19 75 -38 18 -46 32 -46 84 0 52 -18 112 -36
119 -9 3 -43 -6 -76 -20 -86 -38 -104 -18 -48 52 37 46 45 95 15 98 -14 2 -32
-14 -60 -54z"/>
<path d="M2515 5940 c-10 -17 11 -43 106 -130 139 -128 144 -131 263 -140 107
-9 116 -7 116 16 0 12 -9 14 -45 8 l-45 -6 0 30 c0 23 8 37 34 57 78 59 58 81
-82 87 -83 4 -122 11 -172 30 -88 34 -154 58 -162 58 -4 0 -10 -4 -13 -10z"/>
<path d="M2269 5195 c-3 -3 -32 -10 -64 -16 -115 -21 -200 -86 -244 -184 -36
-81 -5 -90 54 -15 47 59 107 92 211 115 76 17 119 48 112 82 -3 17 -56 32 -69
18z"/>
<path d="M3136 5071 c-31 -34 -12 -52 65 -65 22 -4 65 -28 104 -57 45 -33 71
-47 78 -40 42 42 -113 181 -201 181 -16 0 -36 -8 -46 -19z"/>
<path d="M2253 4464 c-46 -23 -74 -73 -80 -143 -7 -72 9 -91 92 -116 111 -32
147 -3 153 121 l4 74 -40 40 c-44 45 -75 50 -129 24z"/>
<path d="M3036 4449 c-33 -26 -66 -89 -66 -127 0 -43 85 -112 138 -112 56 0
81 114 43 193 -18 38 -53 67 -80 67 -5 0 -20 -9 -35 -21z"/>
<path d="M2961 4134 c-89 -25 -131 -66 -131 -130 0 -58 108 -213 160 -229 40
-13 99 15 158 73 100 99 126 185 74 243 -23 26 -40 33 -107 45 -94 16 -85 16
-154 -2z"/>
<path d="M584 3943 c-72 -71 -118 -151 -109 -192 7 -31 51 -76 108 -110 55
-33 52 -69 -13 -137 -28 -29 -50 -60 -50 -69 0 -9 12 -41 26 -71 l26 -54 -4
-268 c-4 -249 -6 -271 -28 -332 -13 -36 -38 -89 -57 -118 -18 -29 -33 -61 -33
-71 0 -11 16 -38 35 -61 33 -40 53 -96 42 -123 -8 -21 7 -38 38 -41 18 -2 45
-19 70 -43 22 -22 83 -74 135 -115 52 -41 109 -88 126 -105 36 -36 110 -157
119 -196 7 -27 59 -67 87 -67 8 0 25 -12 39 -26 13 -15 44 -36 69 -47 48 -21
100 -64 100 -82 0 -15 38 -48 72 -63 16 -6 65 -14 110 -18 115 -9 226 -49 373
-134 136 -78 128 -76 228 -40 64 23 80 21 135 -16 31 -22 38 -23 56 -10 25 16
55 88 55 135 1 29 -8 42 -56 87 -54 49 -58 56 -58 96 1 40 20 89 55 145 13 21
12 25 -8 45 -26 26 -74 29 -167 9 -35 -8 -102 -11 -161 -9 -91 3 -107 7 -170
38 -37 19 -94 54 -126 77 -83 61 -201 176 -223 217 l-19 36 31 32 c28 30 31
39 32 108 3 129 31 199 115 288 60 65 146 123 222 152 53 19 57 19 127 4 40
-9 119 -36 177 -59 58 -24 141 -53 185 -64 45 -11 126 -37 180 -56 55 -20 127
-45 159 -56 33 -11 82 -32 110 -46 99 -50 185 -173 221 -318 30 -116 33 -124
59 -129 11 -2 47 -10 79 -16 57 -11 60 -11 100 17 82 56 180 165 222 245 38
74 39 79 25 105 -27 47 -62 58 -189 55 -124 -2 -141 3 -141 48 0 66 171 150
304 150 74 0 96 9 96 42 0 26 -51 54 -165 90 -115 35 -189 70 -272 126 -79 54
-96 76 -103 130 -4 39 -9 47 -25 47 -14 0 -21 -8 -23 -25 -2 -14 -10 -46 -18
-72 -11 -35 -13 -68 -8 -130 10 -127 -18 -198 -84 -215 -36 -9 -86 20 -105 60
-31 64 -15 236 32 355 12 29 21 57 21 63 0 6 -25 35 -55 65 -69 69 -81 107
-59 189 12 48 13 69 3 107 -18 76 14 98 83 59 58 -32 125 -46 153 -31 14 7 25
22 25 32 0 15 -8 18 -47 18 -66 0 -116 16 -177 55 -64 41 -75 53 -91 107 -20
72 -41 63 -119 -47 -70 -100 -103 -129 -227 -201 -42 -24 -84 -53 -95 -65 -18
-20 -18 -21 1 -35 10 -8 25 -14 33 -14 28 0 80 -32 91 -56 27 -60 -30 -59
-116 1 -76 54 -281 150 -373 175 -277 77 -331 90 -435 105 -201 28 -461 83
-573 122 -84 29 -104 50 -121 126 -10 47 -10 61 3 92 32 76 -12 74 -90 -2z
m1912 -519 c34 -16 104 -100 104 -125 0 -19 -31 -49 -51 -49 -22 0 -74 59
-101 116 -18 35 -19 45 -8 58 15 20 14 20 56 0z m-436 -1673 c43 -82 -52 -169
-127 -116 -30 21 -40 78 -19 110 15 22 24 25 76 25 48 0 61 -4 70 -19z"/>
<path d="M3216 3003 c-6 -14 -5 -15 5 -6 7 7 10 15 7 18 -3 3 -9 -2 -12 -12z"/>
<path d="M3556 2138 c-49 -74 -224 -257 -299 -313 -67 -51 -143 -92 -152 -83
-3 3 3 21 14 39 12 19 21 40 21 47 0 18 -28 15 -60 -8 -50 -36 -134 -70 -172
-70 -65 0 -82 -27 -123 -184 -20 -76 -41 -146 -47 -156 -19 -30 -138 -81 -182
-78 -55 4 -68 -22 -60 -117 15 -175 41 -195 143 -109 38 31 57 22 67 -33 8
-44 -18 -132 -46 -158 -22 -20 -26 -46 -9 -73 9 -15 5 -29 -20 -74 -18 -31
-39 -62 -46 -68 -8 -7 -15 -23 -15 -36 0 -38 34 -30 73 17 20 25 39 39 46 35
6 -4 11 -36 11 -78 0 -58 -5 -81 -27 -126 -33 -65 -89 -130 -146 -172 -74 -53
-90 -57 -227 -50 -104 5 -137 10 -195 33 -134 52 -283 143 -629 383 -88 60
-113 64 -134 21 -8 -16 -20 -31 -27 -34 -8 -2 -40 11 -72 31 -59 36 -132 66
-162 66 -10 0 -32 -16 -51 -35 -56 -58 -107 -44 -243 63 -51 40 -78 71 -110
127 -34 60 -49 77 -80 89 -21 8 -45 12 -53 9 -22 -8 3 -42 105 -145 47 -47
110 -113 140 -147 62 -70 182 -138 292 -165 76 -19 210 -21 275 -5 39 10 52 8
115 -15 38 -14 84 -26 101 -26 23 0 55 -18 122 -69 124 -94 212 -147 315 -191
110 -47 199 -64 310 -58 166 10 336 110 389 231 18 42 24 47 52 47 26 0 44
-12 93 -62 90 -92 138 -112 262 -113 93 -1 104 -3 160 -34 57 -31 64 -32 135
-27 41 3 94 8 118 12 27 4 75 0 127 -11 80 -17 88 -17 172 0 142 29 304 127
401 243 36 43 112 162 112 176 0 3 -9 6 -20 6 -11 0 -20 -6 -20 -13 0 -20
-120 -131 -130 -121 -9 9 55 104 109 162 17 18 31 37 31 42 0 5 15 10 33 12
30 3 33 6 43 58 11 53 5 80 -17 80 -5 0 -20 -23 -34 -50 -28 -55 -54 -81 -191
-191 -79 -64 -246 -179 -260 -179 -3 0 -22 -11 -42 -25 -42 -28 -52 -31 -52
-12 0 8 31 35 69 60 137 94 296 260 376 393 34 57 43 84 27 84 -4 0 -46 -32
-92 -72 -80 -67 -224 -168 -240 -168 -4 0 -10 9 -13 20 -6 23 -32 25 -67 5
-32 -18 -60 -19 -60 -1 0 8 38 49 84 93 102 96 225 238 272 314 57 94 41 95
-59 1 -202 -191 -342 -290 -552 -388 -22 -10 -43 -20 -47 -22 -5 -2 -8 3 -8
12 0 9 5 16 10 16 6 0 18 8 28 18 10 9 54 41 98 71 155 106 343 278 329 301
-10 17 -26 11 -69 -23 -127 -104 -354 -237 -403 -237 -26 0 -31 15 -9 27 8 4
33 25 57 45 24 20 85 70 134 111 111 92 221 205 310 317 70 88 114 164 102
176 -4 4 -60 -47 -124 -112 -133 -135 -239 -221 -398 -322 -107 -67 -256 -152
-269 -152 -16 0 -3 41 17 51 12 7 24 15 27 19 3 3 38 32 78 65 61 48 104 95
89 95 -15 0 -77 -26 -100 -43 -54 -37 -178 -72 -328 -92 -38 -5 -48 -3 -53 11
-7 20 -8 19 149 126 154 104 147 99 298 236 138 125 242 241 313 348 44 68 53
94 33 94 -5 0 -60 -52 -122 -116 -107 -111 -263 -248 -375 -329 -62 -44 -263
-146 -274 -139 -14 9 -9 24 10 31 9 4 32 19 50 35 18 15 37 28 43 28 6 0 23 9
37 21 15 11 59 44 97 73 45 33 70 59 70 72 0 26 -27 20 -86 -21 -71 -49 -234
-127 -264 -127 -58 0 -41 25 60 91 201 129 348 263 480 439 52 69 101 174 90
193 -12 18 -24 8 -59 -43z"/>
<path d="M4380 1698 c1 -40 2 -42 16 -23 17 23 15 56 -3 63 -9 2 -13 -9 -13
-40z"/>
<path d="M955 1656 c-60 -19 -140 -62 -178 -96 -43 -37 -104 -126 -113 -162
-11 -47 22 -34 100 40 39 37 122 101 184 142 61 41 112 78 112 82 0 12 -60 8
-105 -6z"/>
<path d="M4440 1090 c-22 -22 -25 -36 -9 -45 14 -9 49 24 49 47 0 24 -15 23
-40 -2z"/>
<path d="M2290 896 c-15 -15 -12 -46 9 -93 25 -53 52 -69 89 -51 34 16 94 105
90 132 -3 19 -10 21 -91 21 -48 0 -92 -4 -97 -9z"/>
<path d="M2547 801 c-31 -32 -35 -40 -23 -50 11 -9 17 -8 30 4 9 9 16 21 16
26 0 5 6 9 14 9 16 0 29 27 20 41 -9 15 -17 11 -57 -30z"/>
</g>
</svg>
